<?xml version="1.0" encoding="UTF-8"?>
<svg width="296px" height="28px" viewBox="0 0 296 28" version="1.1" xmlns="http://www.w3.org/2000/svg" xmlns:xlink="http://www.w3.org/1999/xlink">
    <!-- Generator: Sketch 51.3 (57544) - http://www.bohemiancoding.com/sketch -->
    <title>Group 2</title>
    <desc>Created with Sketch.</desc>
    <defs>
        <linearGradient x1="12.7364208%" y1="15.6287982%" x2="81.2614794%" y2="77.7408854%" id="linearGradient-1">
            <stop stop-color="#29BEF1" offset="0%"></stop>
            <stop stop-color="#24B1E3" offset="42.7113439%"></stop>
            <stop stop-color="#127DA9" offset="100%"></stop>
        </linearGradient>
        <polygon id="path-2" points="0 0 132.125 0 132.125 21.875 0 21.875"></polygon>
    </defs>
    <g id="Symbols" stroke="none" stroke-width="1" fill="none" fill-rule="evenodd">
        <g id="BNow-logo_home">
            <g id="Group-2">
                <g id="Group">
                    <g id="Barclays_dIgital_logo_badge" fill="url(#linearGradient-1)">
                        <g id="New_Digital_Logo">
                            <path d="M10.9588939,0.342533333 C10.9270991,0.381033333 10.9207868,0.399233333 10.8777703,0.3962 C10.7798141,0.388266667 10.5595881,0.389433333 10.4938943,0.389433333 C10.1843622,0.389433333 9.90802761,0.438666667 9.64642152,0.4935 C9.09421992,0.609233333 8.7535943,0.838133333 8.45084194,1.0801 C8.31057058,1.19233333 8.04265228,1.50686667 7.98186802,1.8424 C7.93090276,2.1259 7.98327074,2.28433333 8.04148335,2.42456667 C8.05130235,2.44813333 8.08800669,2.49083333 8.09525404,2.5165 C8.26054046,2.34336667 8.53500476,2.20896667 9.05377501,2.20686667 C9.63332952,2.20453333 10.4267979,2.4689 10.7043014,2.91643333 C11.1003342,3.55506667 11.0213146,4.07143333 10.9378532,4.6851 C10.7244069,6.25776667 10.1408781,7.07466667 8.84500447,7.25456667 C8.62080408,7.2856 8.39917533,7.30146667 8.18619664,7.30146667 C7.27606929,7.30146667 6.61258575,7.01376667 6.27266148,6.46613333 C6.18101752,6.31866667 6.1700296,6.27106667 6.1700296,6.27106667 C6.1700296,6.27106667 6.27219391,6.24633333 6.36150001,6.20433333 C6.7058662,6.04263333 6.96536822,5.80346667 7.05981761,5.43433333 C7.16478734,5.02343333 7.05818111,4.5626 6.78839252,4.25973333 C6.30071575,3.7114 5.624374,3.43326667 4.77736876,3.43326667 C4.30722592,3.43326667 3.89061997,3.5224 3.6238706,3.59683333 C2.55734068,3.89503333 1.70682865,4.7012 1.02370712,6.06106667 C0.54047228,7.02263333 0.202885869,8.29313333 0.0729010738,9.63876667 C-0.0556810079,10.9573333 0.00767489054,12.0712667 0.0955782773,13.0788 C0.240759137,14.7555333 0.520834289,15.7600333 0.92645231,16.8368667 C1.34352583,17.9494 1.85481494,19.012 2.42010853,19.9343667 C2.60503294,20.2356 2.74062859,20.4572667 2.81567377,20.5578333 C2.92415029,20.4439667 3.0230416,20.3403667 3.17663874,20.1870667 C3.39896885,19.9651667 4.02808591,19.1445333 4.20623054,18.8911333 C4.38671302,18.6368 4.71798722,18.1246333 4.89122235,17.7557333 L4.98613931,17.5536667 L5.16171229,17.6920333 C5.34944213,17.8399667 5.4588538,18.0985 5.45441187,18.3831667 C5.4506713,18.6330667 5.3922249,18.9245 5.23886154,19.4581333 C5.07170484,20.0377333 4.78064176,20.7309667 4.44024992,21.3598 C4.39863609,21.4363333 4.35795739,21.5098333 4.31868141,21.5793667 C4.09564994,21.9783667 4.00120056,22.1729667 4.08489581,22.2614 C4.29156228,22.2910333 4.55503865,22.1554667 4.8416598,21.9363667 C5.10162939,21.7385 5.79690778,21.1514333 6.63479538,19.9810333 C7.26835436,19.0950667 7.77146098,18.2357 8.26685267,17.1943333 L8.33956,17.0410333 L8.49619635,17.1070667 C8.58269702,17.1437 8.66335306,17.2169667 8.71221425,17.3042333 C8.8071312,17.4755 8.83986119,17.7032333 8.8071312,17.9624667 C8.72904681,18.5894333 8.36130206,19.5395667 8.06649841,20.2260333 C7.56666479,21.3899 6.64835494,22.6926 5.96640234,23.5804333 C5.93975078,23.6154333 5.77493193,23.8109667 5.7478128,23.8462 C5.8046227,23.9043 5.94349135,24.0174667 6.1115832,24.1546667 L6.36921493,24.3653667 C7.30459113,25.1328 8.17474115,25.7226667 9.27867676,26.3384333 C10.1315266,26.8144333 11.8666834,27.6924667 13.0171423,28 C14.1678351,27.6924667 15.9032256,26.8144333 16.7560755,26.3384333 C17.8478543,25.7292 18.7448896,25.1206667 19.6643684,24.3653667 L19.9159217,24.1602667 C20.0842473,24.0228333 20.2235836,23.9094333 20.2829651,23.8494667 C20.2523392,23.8028 20.1924901,23.7318667 20.1564871,23.6894 C20.1244585,23.6518333 20.0935988,23.6149667 20.067181,23.5804333 C19.3840595,22.6905 18.4659834,21.3859333 17.9668511,20.2258 C17.6718137,19.5379333 17.3045365,18.5868667 17.2280886,17.9629333 C17.1948911,17.7044 17.2262183,17.4759667 17.3223042,17.3033 C17.3627491,17.2307333 17.4211955,17.1808 17.4901623,17.1385667 C17.5883522,17.0779 17.6949585,17.0405667 17.6949585,17.0405667 L17.7678996,17.1945667 C18.2621223,18.235 18.7649952,19.0943667 19.3994893,19.9810333 C20.2392472,21.1530667 20.9331229,21.7389667 21.1923911,21.9363667 C21.4841555,22.1585 21.7415535,22.2910333 21.8804221,22.2910333 C22.0433707,22.1965333 21.9524281,22.0038 21.7179411,21.5838 C21.6781976,21.5126333 21.6365837,21.4377333 21.5947361,21.3600333 C21.2538767,20.7316667 20.9621123,20.0384333 20.7942542,19.4576667 C20.641826,18.9252 20.584081,18.634 20.5805742,18.3834 C20.5758985,18.0985 20.6850763,17.8399667 20.8723386,17.6922667 L21.0481454,17.5534333 L21.1428285,17.7557333 C21.3282205,18.1503 21.6721192,18.6711 21.8282879,18.8916 C22.0050298,19.1431333 22.6336793,19.9628333 22.8574122,20.1870667 C23.0105417,20.3401333 23.1091993,20.4430333 23.1758281,20.5130333 C23.2910845,20.4605333 23.4203679,20.2498333 23.5961747,19.9630667 C24.1790022,19.0124667 24.6902913,17.9498667 25.1080662,16.8366333 C25.5125153,15.7602667 25.7928242,14.7564667 25.939174,13.0785667 C26.026376,12.0766333 26.0894981,10.9671333 25.9618512,9.6411 C25.8440232,8.337 25.4882015,6.99906667 25.0105776,6.06176667 C24.7199821,5.48986667 24.3008045,4.76513333 23.6352169,4.23383333 C23.2969291,3.96573333 22.8833624,3.75386667 22.4059722,3.60336667 C22.0552938,3.49276667 21.6849774,3.43653333 21.3050758,3.43653333 C20.7654986,3.4433 19.8607483,3.55903333 19.2533733,4.26276667 C18.9775063,4.58173333 18.8758096,5.03976667 18.9889618,5.45836667 C19.0838787,5.81046667 19.3146251,6.07016667 19.640756,6.19266667 C19.640756,6.19266667 19.7443231,6.2307 19.9072716,6.26033333 C19.8602807,6.35133333 19.7475961,6.51023333 19.7475961,6.51023333 C19.5385917,6.81916667 19.0712543,7.224 17.7889403,7.224 C17.0366182,7.18106667 16.4743638,7.00396667 15.8176601,6.15626667 C15.4106393,5.63056667 15.2032715,4.74833333 15.1735807,3.2963 C15.1473968,2.56783333 15.0473365,1.9369 14.8729325,1.43033333 C14.7560397,1.09036667 14.4813416,0.733833333 14.218099,0.563733333 C13.9908594,0.416966667 13.7933105,0.297266667 13.4038237,0.171966667 C12.9652419,0.0312666667 12.4076633,0.0100333333 11.9898884,0.0007 C11.4089312,0.0049 11.1363372,0.128566667 10.9588939,0.342533333 Z" id="Eagle"></path>
                        </g>
                    </g>
                    <g id="Group-3" transform="translate(33.250000, 2.625000)">
                        <mask id="mask-3" fill="white">
                            <use xlink:href="#path-2"></use>
                        </mask>
                        <g id="Clip-2"></g>
                        <path d="M131.588434,5.27971003 C130.728642,3.73823992 128.887485,2.55823406 126.879161,2.55823406 C125.121586,2.55823406 123.567415,3.28407758 123.567415,5.14620146 C123.567415,6.72323499 125.517289,7.78955452 127.548407,9.09840489 C129.770071,10.4842122 132.06772,12.1935883 132.06772,15.151182 C132.06772,19.0205985 128.300652,21.3876063 123.940907,21.3876063 C122.148846,21.3876063 120.273203,21.0482963 118.167854,20.2524919 L118.512706,15.0963794 C119.532064,17.1497295 121.429334,18.7827317 124.235492,18.7827317 C126.396369,18.7827317 128.006067,17.7397324 128.006067,15.919585 C128.006067,14.3798639 126.690954,13.4214007 125.090608,12.4565243 C121.726257,10.4294095 119.581162,8.81039951 119.581162,5.86504891 C119.581162,1.47034327 123.271661,0 127.093086,0 C129.315335,0 130.704678,0.409853815 132.125,0.409853815 L131.588434,5.27971003 Z M112.898051,9.8988733 C112.415258,10.7016737 111.802123,11.7895645 111.433892,12.593531 C111.104821,14.1087658 110.946423,16.1382126 110.946423,18.381623 C110.946423,19.3155999 111.104821,20.5678986 111.532087,20.9894126 L105.942565,20.9894126 C106.935622,20.0577677 107.336585,14.3268103 107.280473,12.511327 C106.530567,9.91752952 105.517053,7.44499747 103.961713,4.42910304 C102.982685,2.53782882 101.821294,0.750329815 101.104704,0.409853815 C102.361367,0.295584473 103.961713,0.219793582 104.741429,0.219793582 C106.136617,0.219793582 106.503096,0.409853815 107.358211,2.26556462 C108.697288,5.27971003 109.692682,7.55168772 110.274839,9.23716052 C111.692823,7.01590443 112.685879,5.49367354 113.973521,3.42050119 C114.290901,2.90862117 114.558015,2.26556462 114.558015,1.65399043 C114.558015,1.17767384 114.475017,0.640141521 114.26343,0.409853815 L119.793333,0.409853815 C118.727215,0.640141521 113.914487,8.19474428 112.898051,9.8988733 Z M93.4583455,5.23015445 L90.1430922,12.4034707 L95.5414842,12.4034707 L93.4583455,5.23015445 Z M99.9491578,21.1876349 C98.1933361,21.1876349 98.0577334,21.1305003 96.6339046,16.2787173 L96.1318237,14.4813071 C95.2696942,14.8876629 93.7529308,15.0748081 91.3208488,15.0748081 L88.8595421,15.0748081 L88.4351991,15.9790517 C87.8162193,17.3386237 86.983899,18.9383945 86.983899,20.0577677 C86.983899,20.3253678 87.0160462,20.6180372 87.1200863,20.9894126 L72.5182426,20.9894126 C73.348225,20.0577677 73.6135855,17.0459543 74.0139643,11.579099 L74.1033919,10.2731637 C74.3097185,7.15116202 74.4698701,4.75033981 74.4453213,3.06370099 C74.41785,1.68663882 74.2822473,0.798136377 73.9046638,0.409853815 L79.5543884,0.409853815 C78.7536308,1.01909597 78.4561231,4.32124677 78.0838,9.78926801 L77.9715771,11.0987014 C77.8429883,13.1246502 77.5717828,15.2158958 77.5717828,17.2307674 C77.5717828,18.1629954 77.9481973,18.381623 78.9108599,18.381623 C82.3336601,18.381623 83.1946207,18.302917 84.7382708,17.2575858 C85.7067784,15.5027351 86.7980298,13.280313 87.8688238,10.9972582 L89.3142789,7.92364609 C90.6784893,5.04009421 92.0128904,2.10698675 92.0128904,1.55021521 C92.0128904,1.14444245 91.9100194,0.774233096 91.7469454,0.409853815 L96.2411242,0.409853815 C96.2411242,0.409853815 98.0577334,7.12259468 98.4581121,8.56495363 L99.338361,11.8111358 C100.861554,17.2896511 101.821294,19.9499114 103.108936,20.9894126 C102.040479,21.1305003 100.513195,21.1876349 99.9491578,21.1876349 Z M63.5591097,21.3876063 C58.2407935,21.3876063 55.1657675,17.022051 55.1657675,12.1137163 C55.1657675,5.27971003 58.8808151,0 65.9678119,0 C68.1830463,0 69.2316296,0.409853815 71.0254435,0.409853815 L70.4877085,5.65808147 C69.4712724,3.81519682 67.8171527,2.55823406 65.5890594,2.55823406 C61.1819702,2.55823406 59.3875719,7.31265491 59.3875719,11.3890388 C59.3875719,15.8228059 61.8775188,18.2463654 65.1916031,18.2463654 C66.9865859,18.2463654 68.5606298,17.7665507 71.2078058,15.919585 C70.1370117,19.3430013 67.6517408,21.3876063 63.5591097,21.3876063 Z M45.1118762,2.90862117 C44.601028,2.90862117 43.9908156,2.90862117 43.5051006,2.96342382 C43.3467026,3.8391001 43.2122689,5.36133099 43.0269841,7.81637283 L42.9141766,9.25698276 C43.1853821,9.30653834 43.5308184,9.33627169 43.8528749,9.33627169 C46.4223131,9.33627169 48.1839798,7.78955452 48.1839798,5.44644999 C48.1839798,3.8391001 47.0623347,2.90862117 45.1118762,2.90862117 Z M52.5723651,21.875 C51.0456652,21.875 50.6768491,21.6313031 50.1671699,20.93461 L44.383596,12.9421691 C43.9341197,12.3206838 43.5845919,11.8111358 42.8662481,11.8111358 L42.7335678,11.8111358 L42.6254363,13.360185 C42.4886646,15.4753338 42.4115113,17.1497295 42.4115113,18.4078583 C42.4319686,19.7901675 42.5956271,20.6442725 42.9732106,20.9894126 L37.3842734,20.9894126 C38.183862,20.2763952 38.4848767,17.872658 38.941367,11.579099 L39.0138443,10.2731637 C39.2277693,7.17856334 39.3861673,4.77715812 39.36571,3.0980984 C39.3417457,1.62833813 39.1792562,0.726426534 38.7753705,0.409853815 L46.3936729,0.409853815 C48.8830353,0.409853815 52.3029131,0.829618747 52.3029131,4.85586405 C52.3029131,8.16675995 50.0830027,9.97466419 47.3352936,10.8287692 C47.5994852,11.0724661 48.0764328,11.6805422 48.372187,12.0600797 L52.5723651,17.6097219 C55.1914853,21.0482963 55.4048258,21.2057081 56.3388482,21.6872718 C55.1657675,21.8219464 53.5888012,21.875 52.5723651,21.875 Z M26.5284555,5.23015445 L23.184562,12.4034707 L28.6115942,12.4034707 L26.5284555,5.23015445 Z M33.0251128,21.1876349 C31.2587702,21.1876349 31.1225829,21.1305003 29.7086906,16.2787173 L29.1995958,14.4813071 C28.3462337,14.8876629 26.8253788,15.0748081 24.3856984,15.0748081 L21.9284832,15.0748081 L21.5035556,15.9790517 C21.0692762,16.9346 20.0323828,18.9109932 20.056347,20.0577677 C20.056347,20.3253678 20.0838183,20.5906359 20.1896118,20.9894126 L15.2412807,20.9894126 C16.6651095,19.5820341 18.4484025,16.2991225 20.9330889,10.9972582 L22.379713,7.92364609 C23.6895654,5.14620146 25.0830004,2.00321153 25.0830004,1.55021521 C25.0830004,1.14444245 24.9766224,0.774233096 24.8135484,0.409853815 L29.3083118,0.409853815 C29.3083118,0.409853815 30.4802234,4.85586405 31.5282222,8.56495363 L32.411978,11.8111358 C33.9386778,17.2896511 34.9007559,19.9499114 36.1772921,20.9894126 C35.0316827,21.1305003 33.5838896,21.1876349 33.0251128,21.1876349 Z M7.56569785,2.88588391 C7.16531907,2.88588391 6.63226001,2.88588391 6.12024276,2.93835452 C5.9104092,4.37138536 5.77714444,5.76302271 5.66959743,7.28408758 C5.66959743,7.28408758 5.59185965,8.59118893 5.59185965,8.53580328 L6.12024276,8.53580328 C8.74403893,8.53580328 11.1539101,7.62572959 11.1539101,5.23015445 C11.1539101,3.8391001 10.0018713,2.88588391 7.56569785,2.88588391 Z M6.89995853,11.0468138 L5.4357996,11.0468138 L5.21661413,14.0831135 C5.1125741,15.4141181 5.05587812,16.5334912 5.03132935,17.872658 C5.03132935,18.0580542 5.61582393,18.4556648 7.00341407,18.4556648 C9.88964831,18.4556648 11.7997766,17.022051 11.7997766,14.6462981 C11.7997766,12.003528 9.62837923,11.0468138 6.89995853,11.0468138 Z M7.21792358,20.9894126 L0,20.9894126 C0.910642557,20.1901102 1.14970084,17.0710236 1.54540367,11.579099 L1.63424685,10.2941519 C1.8440804,7.17856334 2.01241484,4.77715812 1.98143663,3.0980984 C1.9522119,1.65399043 1.7908914,0.726426534 1.3916816,0.409853815 L9.46238277,0.409853815 C11.3894614,0.409853815 15.2412807,0.511297007 15.2412807,4.511307 C15.2412807,7.17856334 12.7583477,8.83080475 10.4788188,9.41905866 C13.695877,9.73679739 16.0981497,11.2846806 16.0981497,14.5885804 C16.0981497,18.1629954 12.727954,20.9894126 7.21792358,20.9894126 Z" id="Fill-1" fill="#00AEEF" mask="url(#mask-3)"></path>
                    </g>
                </g>
            </g>
        </g>
    </g>
</svg>
